<svg width="1440" height="800" viewBox="0 0 1440 800" fill="none" xmlns="http://www.w3.org/2000/svg">
<path d="M0 0H1440V699L0 800V0Z" fill="url(#paint0_linear)"/>
<circle cx="142" cy="133" r="382" fill="#3E64FF" fill-opacity="0.05"/>
<circle cx="68" cy="251" r="376" fill="#3E64FF" fill-opacity="0.1"/>
<circle cx="1015" cy="350" r="363.5" stroke="white" stroke-opacity="0.1" stroke-dasharray="6 6"/>
<path d="M736.548 270.786C755.276 204.955 796.722 147.888 853.53 109.713C910.339 71.5386 978.835 54.7258 1046.86 62.2587C1114.89 69.7916 1178.05 101.183 1225.13 150.862C1272.21 200.54 1300.17 265.292 1304.04 333.626C1307.91 401.96 1287.44 469.455 1246.27 524.133C1205.11 578.811 1145.9 617.134 1079.16 632.302C1012.41 647.469 942.457 638.5 881.701 606.985C820.944 575.471 773.319 523.45 747.276 460.155" stroke="white" stroke-opacity="0.2"/>
<circle cx="1015" cy="350" r="117" stroke="white" stroke-opacity="0.01" stroke-width="30"/>
<circle cx="1015" cy="350" r="185.5" stroke="white" stroke-opacity="0.5" stroke-dasharray="6 6"/>
<circle opacity="0.2" cx="720" cy="174" r="10" fill="white"/>
<circle opacity="0.2" cx="1234" cy="130" r="10" fill="white"/>
<circle opacity="0.2" cx="1073" cy="526" r="10" fill="white"/>
<path d="M1083 414.707C1083 421.066 1081.34 426.749 1078.01 431.758C1074.69 436.767 1070.39 440.106 1065.11 441.776L1068.39 451.421C1068.64 452.238 1068.41 452.646 1067.69 452.646H1057.06L1064.18 476.571H1062.72L1040.95 444.387C1040.76 444.138 1040.73 443.881 1040.86 443.614C1040.98 443.348 1041.22 443.215 1041.56 443.215H1052.52L1040.06 416.785C1039.69 415.968 1039.92 415.559 1040.76 415.559H1055.56C1056.03 415.559 1056.42 415.844 1056.73 416.412L1062.07 432.771C1065.66 431.74 1068.62 429.547 1070.97 426.19C1073.31 422.833 1074.48 419.005 1074.48 414.707C1074.48 409.911 1073.07 405.773 1070.26 402.291C1067.45 398.81 1063.94 396.785 1059.73 396.217L1057.2 396.057C1056.61 396.057 1056.23 395.79 1056.07 395.258L1055.7 391.901C1055.17 385.755 1052.88 380.595 1048.84 376.421C1044.8 372.247 1040.03 370.16 1034.53 370.16C1029.1 370.16 1024.33 372.247 1020.23 376.421C1016.12 380.595 1013.79 385.755 1013.23 391.901L1012.85 395.258C1012.85 395.897 1012.56 396.217 1011.96 396.217H1003.91C999.446 396.217 995.607 398.037 992.391 401.678C989.176 405.32 987.568 409.662 987.568 414.707C987.568 419.645 989.059 423.934 992.04 427.575C995.021 431.216 998.65 433.161 1002.93 433.41C1003.58 433.41 1003.91 433.748 1003.91 434.423V442.042C1003.91 442.682 1003.58 443.001 1002.93 443.001C998.525 442.859 994.491 441.501 990.823 438.925C987.155 436.35 984.259 432.922 982.136 428.641C980.014 424.36 978.952 419.716 978.952 414.707C978.952 410.551 979.67 406.732 981.106 403.25C977.298 397.78 975.393 391.545 975.393 384.547C975.393 379.148 976.572 374.148 978.929 369.547C981.286 364.947 984.485 361.306 988.528 358.624C992.571 355.942 996.965 354.601 1001.71 354.601C1005.3 354.601 1008.79 355.453 1012.18 357.158C1015.56 358.864 1018.49 361.226 1020.96 364.245C1024.98 361.794 1029.51 360.569 1034.53 360.569C1041.62 360.569 1047.9 363.064 1053.38 368.055C1058.86 373.046 1062.37 379.432 1063.89 387.211C1069.42 388.668 1073.99 391.972 1077.59 397.123C1081.2 402.274 1083 408.135 1083 414.707ZM1042.12 471.083C1042.12 471.936 1041.86 472.824 1041.32 473.747C1040.79 474.671 1040.03 475.31 1039.03 475.666C1038.47 475.808 1038.05 475.879 1037.77 475.879C1037.02 475.879 1036.38 475.737 1035.85 475.452C1034.78 474.991 1034.07 473.907 1033.69 472.202L1032.33 466.341C1032.02 464.92 1032.16 463.65 1032.76 462.531C1033.35 461.412 1034.24 460.71 1035.42 460.426C1036.45 460.035 1037.48 460.177 1038.52 460.852C1039.55 461.527 1040.25 462.504 1040.62 463.783L1041.89 469.698C1042.04 470.479 1042.12 470.941 1042.12 471.083ZM1040.95 344.849C1040.95 346.164 1040.53 347.301 1039.69 348.26L1036.45 351.99C1035.67 352.878 1034.75 353.375 1033.69 353.482C1032.66 353.659 1031.65 353.233 1030.65 352.203C1029.65 351.173 1029.15 349.965 1029.15 348.579C1029.15 347.265 1029.57 346.128 1030.41 345.169L1033.55 341.439C1034.36 340.516 1035.36 340.054 1036.55 340.054C1037.8 340.054 1038.84 340.516 1039.69 341.439C1040.53 342.363 1040.95 343.499 1040.95 344.849ZM1035.42 443.801C1035.46 444.724 1035.22 445.621 1034.72 446.492C1034.22 447.362 1033.43 447.975 1032.33 448.33C1031.27 448.721 1030.23 448.605 1029.22 447.984C1028.21 447.362 1027.51 446.305 1027.14 444.813L1025.64 438.952C1025.29 437.708 1025.43 436.51 1026.04 435.355C1026.64 434.2 1027.54 433.428 1028.73 433.037C1029.85 432.646 1030.92 432.78 1031.94 433.437C1032.95 434.094 1033.63 435.097 1033.97 436.447L1035.19 442.415C1035.35 443.197 1035.42 443.659 1035.42 443.801ZM1021.28 453.339C1021.28 454.156 1021.11 454.902 1020.77 455.577C1020.11 456.785 1019.21 457.602 1018.05 458.028C1017.49 458.241 1017.02 458.348 1016.65 458.348C1016.02 458.348 1015.51 458.206 1015.1 457.921C1014.1 457.495 1013.35 456.358 1012.85 454.511L1011.59 448.756C1011.25 447.406 1011.36 446.172 1011.92 445.053C1012.48 443.934 1013.32 443.197 1014.45 442.842C1015.6 442.451 1016.69 442.575 1017.7 443.215C1018.72 443.854 1019.39 444.813 1019.74 446.092L1021.14 452.007C1021.24 452.504 1021.28 452.948 1021.28 453.339ZM1014.45 425.95C1014.45 426.945 1014.17 427.895 1013.63 428.801C1013.08 429.707 1012.26 430.337 1011.17 430.693C1010.33 431.012 1009.31 430.923 1008.12 430.426C1007.13 429.929 1006.41 428.845 1005.97 427.176L1004.61 421.474C1004.3 420.053 1004.43 418.783 1005.01 417.664C1005.59 416.545 1006.47 415.844 1007.66 415.559C1008.78 415.169 1009.84 415.284 1010.84 415.906C1011.84 416.527 1012.51 417.478 1012.85 418.757L1014.31 424.778C1014.4 425.524 1014.45 425.915 1014.45 425.95ZM1013.93 370C1010.59 366.341 1006.52 364.512 1001.71 364.512C996.809 364.512 992.633 366.457 989.184 370.347C985.734 374.236 984.009 378.97 984.009 384.547C984.009 388.277 984.79 391.705 986.351 394.831C991.158 389.361 997.011 386.625 1003.91 386.625H1005.46C1006.92 379.876 1009.75 374.334 1013.93 370ZM1005.97 340.054C1005.97 341.404 1005.56 342.558 1004.73 343.517C1003.9 344.476 1002.9 344.956 1001.71 344.956C1000.52 344.956 999.532 344.485 998.736 343.544C997.94 342.603 997.542 341.439 997.542 340.054V328.331C997.542 326.945 997.94 325.782 998.736 324.841C999.532 323.899 1000.52 323.429 1001.71 323.429C1002.9 323.429 1003.9 323.908 1004.73 324.867C1005.56 325.826 1005.97 326.981 1005.97 328.331V340.054ZM978.109 353.055C978.109 354.441 977.719 355.578 976.939 356.466C976.252 357.354 975.339 357.842 974.199 357.931C973.06 358.02 972.006 357.531 971.039 356.466L963.827 348.26C962.953 347.336 962.516 346.199 962.516 344.849C962.516 343.499 962.953 342.363 963.827 341.439C964.639 340.444 965.638 339.947 966.824 339.947C967.979 339.947 968.947 340.444 969.727 341.439L976.939 349.645C977.719 350.533 978.109 351.67 978.109 353.055ZM974.223 420.781C974.223 422.096 973.801 423.233 972.958 424.192L969.727 427.762C968.822 428.721 967.792 429.201 966.637 429.201L966.543 429.307C965.451 429.307 964.545 428.792 963.827 427.762C962.953 426.838 962.516 425.701 962.516 424.352C962.516 423.037 962.953 421.883 963.827 420.888L966.918 417.371C967.823 416.341 968.838 415.826 969.962 415.826C971.148 415.826 972.155 416.314 972.982 417.291C973.809 418.268 974.223 419.431 974.223 420.781ZM966.918 384.547C966.918 385.933 966.481 387.052 965.607 387.904C964.826 388.899 963.827 389.396 962.61 389.396H952.308C951.122 389.396 950.107 388.925 949.264 387.984C948.421 387.043 948 385.897 948 384.547C948 383.197 948.414 382.069 949.241 381.164C950.068 380.258 951.091 379.805 952.308 379.805H962.61C963.827 379.805 964.85 380.258 965.677 381.164C966.504 382.069 966.918 383.197 966.918 384.547Z" fill="white" fill-opacity="0.1"/>
<defs>
<linearGradient id="paint0_linear" x1="720" y1="0" x2="720" y2="699" gradientUnits="userSpaceOnUse">
<stop stop-color="#3E64FF"/>
<stop offset="1" stop-color="#0E1944"/>
</linearGradient>
</defs>
</svg>
